<svg xmlns="http://www.w3.org/2000/svg" xmlns:xlink="http://www.w3.org/1999/xlink" version="1.1" x="0px" y="0px" viewBox="0 0 100 125" style="enable-background:new 0 0 100 100;" xml:space="preserve"><path d="M100,49.3c-0.1-4.9-1-8.6-2.7-11.2c0-0.2-0.1-0.4-0.2-0.6c-4.5-8.1-14.4-14.9-27.8-19.2c-10.7-3.4-22.7-4.7-29.7-3.3  C26.2,17.8,19.5,25.8,18,27.9c-2.9,0.5-5.6,1.4-8,2.7C5.4,33,2.2,36.7,0.8,41C-1,46.4,0.3,52.5,4.6,58.1l0.1,0.1  c0.3,0.4,0.5,0.7,6.8,4.7c3.7,2.4,8.6,5.4,13.4,8.3c5.8,3.5,19.4,11.7,23.2,13.1c0.9,0.5,1.7,0.8,2.4,1c0.6,0.1,1.2,0.2,1.9,0.2  c1.2,0,2.4-0.3,3.3-0.8C56.9,84,94.4,60.7,98.6,58c0.5-0.3,0.8-0.8,0.9-1.3C99.5,56.5,100.1,53.3,100,49.3z M40.3,18.8  c7.4-1.5,19.6,0.6,27.8,3.2c9.3,2.9,16.7,7.1,21.5,12c-1.1-0.1-2.3,0-3.5,0.2c-4.6,0.9-10.5,4.2-13.9,11.1c-2.1-1.6-5.8-4.2-11-7  c-7.6-4.1-19.9-9.3-35.5-10.7c-0.8-0.1-1.6-0.1-2.4-0.1C26.3,24.6,31.8,20.5,40.3,18.8z M7.6,55.8C4.2,51.2,3,46.4,4.4,42.1  c1.1-3.3,3.7-6.3,7.3-8.2c3.9-2.1,8.7-3,13.8-2.5c14.9,1.4,26.6,6.3,33.9,10.2c2.1,1.1,3.9,2.2,5.5,3.2c-0.9,0-1.8,0-2.8,0.1  c-4.2,0.4-10,1.8-13.9,6.6c-3.3,4.1-5.3,9.8-5.8,16.1c-0.3,3.7,0,7.2,0.8,9.9C31.7,71.1,9.8,57.5,7.6,55.8z M53.7,81.4  c-0.5,0.3-2.1,0.7-3.8-0.4c0,0-0.1-0.1-0.1-0.1c-0.7-0.4-1.4-1.1-2-2.2c-1.5-2.3-1.8-7.2-1.6-10.8c0.4-5.5,2.2-10.5,5-14  c3-3.8,7.8-4.9,11.2-5.2c0.7-0.1,1.4-0.1,2-0.1c3.3,0,6.3,0.7,7.7,1.4c0,0,0,0,0,0c0,0,0.1,0.1,0.1,0.1c0,0,0,0,0,0c0,0,0,0,0,0  c0.2,0.3,1.4,2,2,10c0.3,3.4,0.3,6.7,0.3,8.2C64.1,75,54.4,81,53.7,81.4z M95.9,55.2C91.5,57.9,85,62,78.4,66.1  c0-1.9-0.1-4.3-0.4-6.9c-0.5-6-1.3-9.6-2.7-11.3c2.7-6.1,7.6-9.1,11.5-9.8c2.9-0.5,5.4,0,6.8,1.6C96.7,43.1,96.4,51.4,95.9,55.2z"/></svg>
