<svg xmlns="http://www.w3.org/2000/svg" xmlns:xlink="http://www.w3.org/1999/xlink" version="1.1" x="0px" y="0px" viewBox="0 0 100 125" style="enable-background:new 0 0 100 100;" xml:space="preserve"><style type="text/css">
	.st0{fill:#010101;}
</style><g><path class="st0" d="M74.4,62.7H25.6c-7.7,0-13.9,6.2-13.9,13.9c0,7.7,6.2,13.9,13.9,13.9h48.7c7.7,0,13.9-6.2,13.9-13.9   C88.3,68.9,82,62.7,74.4,62.7z"/><path class="st0" d="M77.4,48.4H22.1c-2.8,0-5.2,2.3-5.2,5.2c0,2.8,2.3,5.2,5.2,5.2h55.3c2.8,0,5.2-2.3,5.2-5.2   C82.6,50.7,80.3,48.4,77.4,48.4z"/><path class="st0" d="M18.7,44.6h62.5c2.8,0,5.2-2.3,5.2-5.2c0-13.1-14.2-28.5-27.6-29.9c-0.2,0-0.4,0-0.5,0H41.7   c-0.2,0-0.4,0-0.6,0c-12,1.4-27.5,16.2-27.5,29.9C13.6,42.3,15.9,44.6,18.7,44.6z M67.5,20.8l3.9-0.1c0.9,0,1.6,0.6,1.6,1.5   c0,0.9-0.6,1.6-1.5,1.6l-3.9,0.1c-0.9,0-1.6-0.6-1.6-1.5C66,21.5,66.7,20.8,67.5,20.8z M54.7,17.3c0.1-0.9,0.9-1.5,1.8-1.4l3.9,0.5   c0.9,0.1,1.5,0.9,1.4,1.8c-0.1,0.9-0.9,1.5-1.8,1.4L56.1,19C55.2,18.9,54.6,18.1,54.7,17.3z M49.6,22.6l3.9-0.6   c0.9-0.1,1.7,0.4,1.8,1.3c0.1,0.8-0.4,1.7-1.3,1.8l-3.9,0.6c-0.9,0.1-1.7-0.4-1.8-1.3C48.2,23.5,48.8,22.7,49.6,22.6z M40.5,16.7   L40.5,16.7c0.4-0.8,1.3-1.1,2.1-0.8l3.6,1.6c0.8,0.4,1.1,1.3,0.8,2.1c-0.4,0.8-1.3,1.1-2.1,0.8l-3.6-1.6   C40.4,18.4,40.1,17.5,40.5,16.7z M29.6,20.2l3.8-1.1c0.8-0.2,1.7,0.2,1.9,1.1c0.2,0.8-0.2,1.7-1.1,1.9l-3.8,1.1   c-0.8,0.2-1.7-0.2-1.9-1.1C28.3,21.3,28.8,20.4,29.6,20.2z"/></g></svg>
