<svg xmlns="http://www.w3.org/2000/svg" xmlns:xlink="http://www.w3.org/1999/xlink" viewBox="0 0 55 121.25" version="1.1" x="0px" y="0px"><title>Group</title><desc>Created with Sketch.</desc><g stroke="none" stroke-width="1" fill="none" fill-rule="evenodd"><g fill="#000000"><path d="M53.441,25.255 C51.599,22.515 48.344,21.005 44.277,21.005 L28.7,21.005 L28.7,19.401 L31.225,19.401 C31.589,19.401 31.924,19.204 32.1,18.885 L35.625,12.511 C35.792,12.209 35.792,11.844 35.625,11.542 L32.1,5.168 C31.924,4.85 31.589,4.652 31.225,4.652 L28.7,4.652 L28.7,1.074 C28.7,0.521 28.253,0.074 27.7,0.074 C27.147,0.074 26.7,0.521 26.7,1.074 L26.7,4.653 L24.175,4.653 C23.811,4.653 23.476,4.85 23.3,5.169 L19.775,11.543 C19.608,11.845 19.608,12.21 19.775,12.512 L23.3,18.886 C23.476,19.204 23.811,19.402 24.175,19.402 L26.7,19.402 L26.7,21.006 L11.123,21.006 C7.056,21.006 3.8,22.516 1.958,25.257 C0.115,27.997 -0.054,31.581 1.482,35.348 L21.489,84.42 C22.841,87.734 24.665,89.758 26.7,90.259 L26.7,95.142 C26.7,95.695 27.147,96.142 27.7,96.142 C28.253,96.142 28.7,95.695 28.7,95.142 L28.7,90.258 C30.735,89.757 32.559,87.735 33.911,84.42 L53.918,35.348 C55.453,31.579 55.284,27.996 53.441,25.255 Z M21.792,12.027 L24.765,6.653 L30.636,6.653 L33.609,12.027 L30.636,17.401 L24.765,17.401 L21.792,12.027 Z M3.617,26.371 C5.077,24.2 7.742,23.005 11.123,23.005 L44.277,23.005 C47.657,23.005 50.323,24.2 51.782,26.371 C52.205,27 52.5,27.698 52.694,28.439 C50.918,28.579 49.856,29.082 48.908,29.536 C47.856,30.041 46.948,30.476 45.011,30.476 C43.073,30.476 42.164,30.04 41.113,29.536 C40.002,29.003 38.743,28.399 36.35,28.399 C33.958,28.399 32.7,29.003 31.589,29.536 C30.538,30.041 29.63,30.476 27.694,30.476 C25.756,30.476 24.849,30.04 23.798,29.536 C22.688,29.004 21.428,28.399 19.036,28.399 C16.645,28.399 15.387,29.003 14.276,29.536 C13.225,30.041 12.317,30.476 10.38,30.476 C8.444,30.476 7.537,30.04 6.486,29.536 C5.539,29.082 4.477,28.579 2.704,28.439 C2.899,27.698 3.194,27 3.617,26.371 Z M32.701,81.257 C32.474,81.365 32.361,81.42 32.044,81.42 C31.728,81.42 31.614,81.365 31.389,81.258 C31.073,81.106 30.639,80.899 29.868,80.899 C29.097,80.899 28.665,81.107 28.349,81.258 C28.123,81.365 28.011,81.42 27.695,81.42 C27.38,81.42 27.267,81.365 27.042,81.258 C26.727,81.107 26.294,80.899 25.522,80.899 C24.751,80.899 24.319,81.107 24.003,81.258 C23.777,81.365 23.665,81.42 23.35,81.42 C23.036,81.42 22.922,81.366 22.699,81.258 C22.585,81.203 22.446,81.143 22.291,81.086 L20.223,76.013 C20.528,76.093 20.886,76.152 21.349,76.152 C22.37,76.152 22.923,75.886 23.368,75.673 C23.722,75.503 23.956,75.391 24.521,75.391 C25.086,75.391 25.32,75.503 25.674,75.673 C26.118,75.887 26.672,76.152 27.693,76.152 C28.714,76.152 29.268,75.886 29.713,75.673 C30.067,75.503 30.301,75.391 30.866,75.391 C31.433,75.391 31.668,75.503 32.022,75.673 C32.467,75.887 33.022,76.152 34.044,76.152 C34.512,76.152 34.874,76.092 35.181,76.011 L33.112,81.085 C32.955,81.142 32.815,81.202 32.701,81.257 Z M35.199,73.869 C34.845,74.039 34.61,74.151 34.043,74.151 C33.476,74.151 33.24,74.039 32.886,73.868 C32.441,73.655 31.886,73.389 30.865,73.389 C29.844,73.389 29.291,73.655 28.846,73.868 C28.492,74.038 28.258,74.15 27.692,74.15 C27.127,74.15 26.893,74.038 26.539,73.868 C26.095,73.654 25.541,73.389 24.52,73.389 C23.499,73.389 22.946,73.655 22.501,73.868 C22.147,74.038 21.913,74.15 21.348,74.15 C20.784,74.15 20.55,74.038 20.198,73.868 C19.934,73.741 19.617,73.601 19.2,73.505 L17.113,68.385 C17.633,68.626 18.29,68.879 19.397,68.879 C20.662,68.879 21.35,68.548 21.903,68.282 C22.386,68.051 22.735,67.883 23.545,67.883 C24.355,67.883 24.703,68.051 25.187,68.282 C25.74,68.548 26.428,68.879 27.693,68.879 C28.959,68.879 29.648,68.548 30.202,68.282 C30.685,68.051 31.035,67.883 31.846,67.883 C32.658,67.883 33.007,68.051 33.491,68.282 C34.046,68.548 34.735,68.879 36.001,68.879 C37.112,68.879 37.771,68.624 38.292,68.383 L36.204,73.504 C35.783,73.603 35.464,73.742 35.199,73.869 Z M37.643,66.48 C37.16,66.711 36.81,66.879 35.998,66.879 C35.186,66.879 34.837,66.711 34.353,66.48 C33.798,66.214 33.109,65.883 31.843,65.883 C30.577,65.883 29.888,66.214 29.334,66.48 C28.851,66.711 28.501,66.879 27.69,66.879 C26.881,66.879 26.533,66.711 26.049,66.48 C25.496,66.214 24.807,65.883 23.542,65.883 C22.277,65.883 21.588,66.214 21.035,66.48 C20.552,66.711 20.203,66.879 19.394,66.879 C18.584,66.879 18.236,66.711 17.752,66.48 C17.342,66.283 16.854,66.051 16.114,65.944 L13.954,60.645 C14.144,60.719 14.329,60.801 14.522,60.894 C15.215,61.227 16.001,61.604 17.501,61.604 C19.003,61.604 19.788,61.227 20.481,60.894 C21.078,60.608 21.549,60.381 22.595,60.381 C23.64,60.381 24.112,60.608 24.708,60.894 C25.4,61.227 26.187,61.604 27.687,61.604 C29.187,61.604 29.974,61.227 30.667,60.894 C31.264,60.608 31.735,60.381 32.782,60.381 C33.83,60.381 34.303,60.608 34.9,60.894 C35.594,61.227 36.38,61.604 37.882,61.604 C39.384,61.604 40.17,61.227 40.864,60.894 C41.058,60.801 41.245,60.718 41.437,60.644 L39.276,65.944 C38.543,66.051 38.055,66.283 37.643,66.48 Z M40.006,59.092 C39.408,59.378 38.937,59.605 37.889,59.605 C36.841,59.605 36.369,59.378 35.772,59.092 C35.078,58.759 34.292,58.382 32.789,58.382 C31.288,58.382 30.502,58.759 29.809,59.092 C29.211,59.378 28.741,59.605 27.694,59.605 C26.648,59.605 26.176,59.378 25.58,59.092 C24.888,58.759 24.101,58.382 22.601,58.382 C21.1,58.382 20.315,58.759 19.622,59.092 C19.025,59.378 18.554,59.605 17.507,59.605 C16.461,59.605 15.989,59.378 15.393,59.092 C14.805,58.81 14.147,58.498 13.047,58.409 L10.862,53.051 C11.283,53.168 11.625,53.33 11.991,53.506 C12.803,53.896 13.722,54.338 15.477,54.338 C17.232,54.338 18.153,53.896 18.964,53.506 C19.674,53.165 20.286,52.871 21.586,52.871 C22.885,52.871 23.497,53.165 24.206,53.506 C25.018,53.896 25.937,54.338 27.691,54.338 C29.447,54.338 30.367,53.896 31.179,53.506 C31.889,53.165 32.502,52.871 33.802,52.871 C35.104,52.871 35.717,53.165 36.427,53.506 C37.239,53.896 38.161,54.338 39.917,54.338 C41.673,54.338 42.595,53.896 43.407,53.506 C43.774,53.33 44.117,53.167 44.54,53.05 L42.355,58.409 C41.254,58.498 40.595,58.81 40.006,59.092 Z M42.542,51.703 C41.832,52.044 41.219,52.338 39.917,52.338 C38.615,52.338 38.002,52.044 37.292,51.703 C36.48,51.313 35.558,50.871 33.802,50.871 C32.046,50.871 31.126,51.313 30.314,51.703 C29.604,52.044 28.991,52.338 27.691,52.338 C26.392,52.338 25.78,52.044 25.071,51.703 C24.259,51.313 23.34,50.871 21.586,50.871 C19.831,50.871 18.91,51.313 18.099,51.703 C17.389,52.044 16.777,52.338 15.477,52.338 C14.178,52.338 13.566,52.044 12.856,51.703 C12.144,51.361 11.349,50.979 9.981,50.891 L7.754,45.429 C8.716,45.531 9.302,45.806 9.951,46.117 C10.858,46.553 11.887,47.047 13.845,47.047 C15.804,47.047 16.833,46.553 17.741,46.117 C18.56,45.724 19.267,45.385 20.77,45.385 C22.272,45.385 22.979,45.725 23.797,46.117 C24.704,46.553 25.733,47.047 27.691,47.047 C29.65,47.047 30.678,46.553 31.587,46.117 C32.406,45.724 33.113,45.385 34.618,45.385 C36.124,45.385 36.832,45.725 37.651,46.117 C38.559,46.553 39.589,47.047 41.549,47.047 C43.509,47.047 44.538,46.553 45.446,46.117 C46.096,45.805 46.683,45.53 47.648,45.429 L45.421,50.891 C44.052,50.979 43.255,51.361 42.542,51.703 Z M44.58,44.314 C43.761,44.707 43.053,45.046 41.548,45.046 C40.042,45.046 39.334,44.706 38.515,44.314 C37.607,43.878 36.577,43.384 34.617,43.384 C32.657,43.384 31.629,43.878 30.721,44.314 C29.902,44.707 29.195,45.046 27.691,45.046 C26.188,45.046 25.481,44.706 24.663,44.314 C23.756,43.878 22.728,43.384 20.77,43.384 C18.812,43.384 17.783,43.878 16.875,44.314 C16.056,44.707 15.349,45.046 13.845,45.046 C12.342,45.046 11.635,44.706 10.817,44.314 C9.91,43.878 8.881,43.384 6.922,43.384 L6.922,43.388 L4.699,37.938 C5.7,38.078 6.346,38.384 7.061,38.728 C8.104,39.229 9.286,39.796 11.533,39.796 C13.781,39.796 14.963,39.229 16.006,38.728 C16.98,38.26 17.821,37.857 19.613,37.857 C21.406,37.857 22.247,38.26 23.221,38.728 C24.264,39.229 25.447,39.796 27.695,39.796 C29.943,39.796 31.125,39.229 32.168,38.728 C33.142,38.26 33.983,37.857 35.775,37.857 C37.569,37.857 38.411,38.26 39.385,38.728 C40.429,39.229 41.612,39.796 43.861,39.796 C46.11,39.796 47.293,39.229 48.337,38.728 C49.053,38.384 49.7,38.077 50.703,37.937 L48.479,43.39 L48.479,43.384 C46.519,43.385 45.488,43.879 44.58,44.314 Z M27.7,88.389 C26.153,88.389 24.565,86.666 23.341,83.663 L23.238,83.412 C23.278,83.413 23.308,83.42 23.349,83.42 C24.12,83.42 24.552,83.212 24.868,83.061 C25.094,82.954 25.206,82.899 25.521,82.899 C25.837,82.899 25.95,82.954 26.175,83.061 C26.49,83.212 26.923,83.42 27.694,83.42 C28.465,83.42 28.898,83.212 29.214,83.061 C29.44,82.954 29.552,82.899 29.867,82.899 C30.184,82.899 30.298,82.954 30.524,83.062 C30.839,83.213 31.272,83.42 32.044,83.42 C32.088,83.42 32.12,83.413 32.162,83.412 L32.059,83.663 C30.835,86.666 29.246,88.389 27.7,88.389 Z M51.545,35.87 C49.561,35.934 48.449,36.456 47.471,36.926 C46.496,37.393 45.655,37.797 43.861,37.797 C42.067,37.797 41.225,37.394 40.251,36.926 C39.207,36.425 38.024,35.858 35.775,35.858 C33.527,35.858 32.345,36.425 31.302,36.926 C30.328,37.394 29.487,37.797 27.695,37.797 C25.902,37.797 25.061,37.394 24.087,36.926 C23.044,36.425 21.861,35.858 19.613,35.858 C17.365,35.858 16.183,36.425 15.14,36.926 C14.166,37.394 13.325,37.797 11.533,37.797 C9.741,37.797 8.9,37.394 7.927,36.926 C6.949,36.456 5.839,35.935 3.857,35.87 L3.336,34.591 C2.743,33.137 2.46,31.733 2.46,30.424 C3.911,30.52 4.716,30.903 5.624,31.34 C6.734,31.872 7.992,32.477 10.383,32.477 C12.775,32.477 14.033,31.873 15.144,31.34 C16.195,30.835 17.103,30.4 19.039,30.4 C20.977,30.4 21.884,30.836 22.935,31.34 C24.045,31.872 25.305,32.477 27.697,32.477 C30.088,32.477 31.346,31.873 32.457,31.34 C33.508,30.835 34.416,30.4 36.353,30.4 C38.291,30.4 39.199,30.836 40.25,31.34 C41.361,31.872 42.62,32.477 45.014,32.477 C47.407,32.477 48.665,31.873 49.777,31.34 C50.686,30.903 51.492,30.52 52.945,30.424 C52.945,31.733 52.663,33.137 52.07,34.591 L51.545,35.87 Z"/><path d="M26.256,8.857 C26.128,8.857 26,8.808 25.902,8.711 C25.707,8.517 25.707,8.199 25.902,8.004 L26.472,7.433 C26.667,7.238 26.984,7.238 27.179,7.433 C27.374,7.627 27.374,7.945 27.179,8.14 L26.609,8.711 C26.512,8.809 26.384,8.857 26.256,8.857 Z"/><path d="M25.978,16.337 C25.817,16.337 25.66,16.259 25.563,16.115 L25.114,15.445 C24.96,15.216 25.021,14.905 25.251,14.752 C25.477,14.598 25.79,14.659 25.944,14.889 L26.393,15.559 C26.547,15.788 26.486,16.099 26.256,16.252 C26.171,16.31 26.074,16.337 25.978,16.337 Z"/><path d="M30.992,10.911 C30.864,10.911 30.736,10.862 30.638,10.765 L29.496,9.624 C29.301,9.429 29.301,9.112 29.496,8.917 C29.691,8.722 30.008,8.722 30.203,8.917 L31.345,10.058 C31.54,10.253 31.54,10.57 31.345,10.765 C31.248,10.862 31.12,10.911 30.992,10.911 Z"/><path d="M29.877,14.846 C29.757,14.846 29.636,14.803 29.54,14.715 C29.336,14.528 29.321,14.212 29.508,14.009 L30.597,12.818 C30.784,12.614 31.1,12.599 31.303,12.786 C31.507,12.973 31.522,13.289 31.335,13.492 L30.246,14.683 C30.147,14.791 30.013,14.846 29.877,14.846 Z"/><path d="M23.539,12.812 C23.477,12.812 23.413,12.8 23.351,12.776 C23.095,12.672 22.971,12.38 23.075,12.125 L23.715,10.545 C23.819,10.289 24.111,10.167 24.366,10.269 C24.622,10.373 24.746,10.665 24.642,10.92 L24.002,12.5 C23.924,12.693 23.736,12.812 23.539,12.812 Z"/><path d="M28.18,12.527 C28.111,12.527 28.041,12.512 27.974,12.483 L27.015,12.049 C26.763,11.935 26.652,11.639 26.765,11.387 C26.879,11.135 27.174,11.027 27.427,11.137 L28.386,11.571 C28.638,11.685 28.749,11.981 28.636,12.233 C28.552,12.418 28.37,12.527 28.18,12.527 Z"/></g></g></svg>
