<svg xmlns="http://www.w3.org/2000/svg" xmlns:xlink="http://www.w3.org/1999/xlink" version="1.1" x="0px" y="0px" viewBox="0 0 72.833 72.5" enable-background="new 0 0 72.833 58" xml:space="preserve"><path d="M34.963,37.17l-27.85-0.005c-3.122,0-5.653,1.74-5.653,3.885s2.528,3.879,5.653,3.879h27.85  c3.122,0,5.653-1.734,5.653-3.879S38.084,37.17,34.963,37.17z"/><path d="M21.409,21.793c-9.671,0-17.521,6.193-17.521,13.851h35.06C38.941,27.994,31.095,21.793,21.409,21.793z"/><path d="M21.409,54.858c9.686,0,17.532-0.752,17.532-8.399H3.883C3.889,54.109,11.732,54.858,21.409,54.858z"/><polygon points="45.918,54.809 65.062,54.809 67.729,21.842 43.256,21.842 "/><polygon points="66.184,15.185 68.538,0.679 64.35,0 61.879,15.185 40.924,15.185 40.924,20.343 70.06,20.343 70.06,15.185 "/></svg>
