<svg xmlns="http://www.w3.org/2000/svg" xmlns:xlink="http://www.w3.org/1999/xlink" version="1.1" x="0px" y="0px" viewBox="0 0 100 125" enable-background="new 0 0 100 100" xml:space="preserve"><path fill="#000000" d="M67.615,34.228l-3.283,27.376c4.246,0.736,7.506,1.799,9.214,2.432l9.52-23.639  C76.799,37.153,70.64,35.125,67.615,34.228z"/><path fill="#000000" d="M98.105,62.755c-0.771-6.949-10.277-14.956-13.913-17.784l-6.675,16.572  c0.647,0.174,1.461,0.411,2.572,0.738c4.457,1.317,14.894,4.398,17.519,2.21C97.879,64.264,98.226,63.837,98.105,62.755z"/><polygon fill="#000000" points="65.155,31.636 35.222,31.636 39.02,63.296 61.356,63.296 "/><path fill="#000000" d="M26.389,64.035c1.764-0.653,5.194-1.763,9.648-2.5l-3.292-27.434c-2.848,0.831-9.319,2.903-15.875,6.295  L26.389,64.035z"/><path fill="#000000" d="M2.327,64.491c2.616,2.188,13.06-0.893,17.52-2.21c1.108-0.327,1.924-0.564,2.571-0.738l-6.674-16.572  C12.107,47.799,2.601,55.806,1.829,62.755C1.708,63.837,2.056,64.264,2.327,64.491z"/></svg>
