<svg xmlns="http://www.w3.org/2000/svg" xmlns:xlink="http://www.w3.org/1999/xlink" version="1.1" x="0px" y="0px" viewBox="0 0 144.083 180" enable-background="new 0 0 144.083 144" xml:space="preserve"><path d="M104.432,59.723l-0.829-1.657H88.576l1.534-5.115l13.083,3.923l0.862-2.874c2.321-7.744-2.948-16.191-11.747-18.83  c-1.767-0.53-3.579-0.799-5.387-0.799c-7.038,0-12.979,4.042-14.782,10.059l-0.861,2.874l13.083,3.923l-2.051,6.839H62.558  l-2.947-16.85c-0.144-0.824-0.625-1.551-1.329-2.004l-13.03-8.407c-1.392-0.898-3.25-0.498-4.147,0.895S40.608,34.948,42,35.846  l11.927,7.696l2.54,14.523H40.776l-0.841,1.611c-2.719,5.203-4.098,10.761-4.098,16.52c0,15.053,8.757,30.669,20.371,36.325  c1.594,0.776,3.335,1.153,5.321,1.153c1.878,0,3.726-0.336,5.513-0.66c1.74-0.315,3.384-0.614,5-0.614  c1.575,0,3.179,0.288,4.878,0.592c1.752,0.314,3.564,0.64,5.408,0.64c1.933,0,3.63-0.358,5.187-1.096  c11.818-5.596,20.73-21.218,20.73-36.34C108.246,70.487,106.891,64.637,104.432,59.723z M99.828,64.065  c0.72,1.713,1.281,3.537,1.686,5.409l-9.344-1.868l-13.287,2.656l-13.277-2.656l-13.282,2.656l-9.432-1.887  c0.406-1.455,0.928-2.89,1.574-4.31H99.828z"/></svg>
