<svg xmlns="http://www.w3.org/2000/svg" xmlns:xlink="http://www.w3.org/1999/xlink" version="1.1" x="0px" y="0px" viewBox="0 0 100 125" enable-background="new 0 0 100 100" xml:space="preserve"><path fill-rule="evenodd" clip-rule="evenodd" fill="#000000" d="M42.98,5.648c1.198,0.367,2.384,0.782,3.597,1.088  C47.636,7.002,48.7,6.68,49.759,6.58c2.125-0.201,4.244-0.485,6.383-0.502c2.878-0.023,5.66,0.661,8.457,1.197  c3.929,0.754,7.676,2.039,11.119,4.13c3.949,2.399,7.209,5.56,10.055,9.162c2.178,2.755,4.28,5.572,5.941,8.676  c1.67,3.124,2.445,6.521,2.707,10.025c0.459,6.177,0.398,12.363-0.027,18.534c-0.703,10.173-4.498,19.003-11.813,26.208  c-5.297,5.217-11.571,8.545-18.978,9.639c-2.074,0.307-4.151,0.531-6.247,0.596c-0.144,0.004-0.337-0.092-0.435,0.115  c-0.328,0-0.658,0-0.986,0c-0.658-0.217-1.316-0.217-1.975,0c-0.41,0-0.822,0-1.233,0c-0.03-0.139-0.142-0.117-0.239-0.123  c-1.354-0.078-2.706-0.16-4.058-0.236c-4.576-0.264-9.026-1.131-13.33-2.732c-8.4-3.125-15.786-7.742-21.562-14.705  c-2.691-3.242-4.871-6.805-6.263-10.801c-0.972-2.79-1.11-5.754-1.688-8.627c-0.151-0.748-0.062-1.534-0.361-2.258  c0-2.426,0-4.853,0-7.28c0.205-0.064,0.11-0.237,0.12-0.362c0.057-0.758,0.082-1.519,0.159-2.273  c0.53-5.199,1.573-10.292,3.169-15.273c1.157-3.613,2.794-6.929,5.308-9.822c2.608-3.003,5.463-5.733,8.424-8.378  c4.212-3.761,9.239-5.315,14.729-5.712c1.287-0.094,2.581-0.088,3.871-0.127C41.664,5.648,42.322,5.648,42.98,5.648z M92.682,49.128  c0.137-3.924,0.213-7.851-0.377-11.746c-0.482-3.194-1.445-6.228-3.232-8.953c-1.622-2.475-3.326-4.89-5.186-7.193  C79.07,15.27,73.143,11.032,65.534,9.407c-2.788-0.595-5.579-1.215-8.431-1.412c-2.305-0.158-4.604,0.13-6.875,0.459  c-2.226,0.323-4.365,0.335-6.456-0.589c-0.605-0.269-1.263-0.358-1.927-0.342c-0.883,0.021-1.765,0.081-2.647,0.075  c-2.54-0.017-5.035,0.211-7.471,1.005c-2.268,0.739-4.552,1.436-6.435,2.971c-3.411,2.783-6.66,5.741-9.502,9.121  c-1.521,1.811-2.999,3.645-3.92,5.859c-1.773,4.262-2.979,8.686-3.739,13.227c-1.024,6.121-1.529,12.263-0.433,18.438  c0.4,2.261,0.561,4.573,1.313,6.758c1.527,4.432,4.037,8.281,7.158,11.74c4.244,4.701,9.354,8.221,15.068,10.895  c3.802,1.779,7.729,3.246,11.885,3.879c6.17,0.939,12.378,1.281,18.605,0.518c3.354-0.408,6.631-1.154,9.718-2.564  c6.138-2.807,10.972-7.148,14.731-12.713c4.371-6.471,6.234-13.72,6.494-21.438C92.739,53.24,92.682,51.183,92.682,49.128z"/><path fill-rule="evenodd" clip-rule="evenodd" fill="#000000" d="M53.961,94.359c0.658-0.217,1.316-0.217,1.975,0  C55.277,94.359,54.619,94.359,53.961,94.359z"/><path fill-rule="evenodd" clip-rule="evenodd" fill="#000000" d="M50.097,13.352c1.256-1.798,3.116-2.452,5.186-2.659  c2.427-0.245,4.848-0.311,7.133,0.76c1.604,0.752,2.875,1.965,4.187,3.115c1.716,1.505,3.468,2.951,5.594,3.872  c0.942,0.407,1.928,0.557,2.929,0.652c1.199,0.115,2.271,0.558,3.225,1.269c1.164,0.867,1.596,2.055,1.33,3.474  c-0.066,0.352-0.014,0.54,0.297,0.75c1.438,0.976,2.617,2.246,3.814,3.488c0.67,0.694,1.398,1.326,2.047,2.045  c2.033,2.253,2.707,4.857,1.977,7.771c-0.554,2.209-0.404,4.285,0.573,6.346c1.128,2.38,1.358,4.919,1.163,7.519  c-0.087,1.167-0.094,2.34-0.151,3.509c-0.081,1.629-0.88,2.801-2.349,3.472c-0.506,0.231-0.607,0.531-0.576,1.038  c0.095,1.559,0.097,3.117-0.176,4.666c-0.239,1.371-0.875,2.504-1.962,3.379c-0.655,0.529-1.297,1.078-1.97,1.582  c-1.034,0.775-1.39,1.754-1.256,3.057c0.296,2.895-0.676,5.383-2.767,7.398c-1.562,1.506-3.457,2.33-5.628,2.473  c-0.41,0.025-0.555,0.15-0.658,0.584c-0.725,3.045-2.587,5.125-5.603,5.963c-3.036,0.842-5.724,0.057-7.937-2.221  c-0.215-0.221-0.375-0.33-0.725-0.223c-1.043,0.32-2.12,0.492-3.211,0.535c-0.322,0.014-0.518,0.127-0.707,0.383  c-4.171,5.637-12.475,4.797-15.389-1.555c-0.131-0.287-0.272-0.422-0.613-0.475c-1.839-0.283-3.579-0.877-5.202-1.799  c-0.866-0.492-1.65-1.08-2.223-1.908c-0.119-0.174-0.226-0.24-0.443-0.238c-3.14,0.035-5.667-1.277-7.742-3.561  c-1.41-1.553-2.854-3.064-4.495-4.383c-2.99-2.402-4.494-5.525-4.47-9.377c0.006-0.963-0.081-1.931-0.046-2.894  c0.056-1.551-0.345-2.962-1.127-4.281c-0.575-0.969-1.138-1.947-1.74-2.9c-1.859-2.94-1.812-5.904-0.182-8.917  c0.7-1.296,1.501-2.559,1.774-4.036c0.426-2.307,0.642-4.635,0.632-6.984c-0.007-1.581,0.021-3.164,0.353-4.722  c0.437-2.049,0.979-2.512,3.059-2.68c0.445-0.036,1.02,0.158,1.302-0.135s0.063-0.861,0.094-1.308  c0.121-1.776,0.953-3.143,2.504-3.98c0.837-0.453,1.439-1.043,1.879-1.861c0.361-0.671,0.826-1.273,1.378-1.805  c1.1-1.055,2.466-1.09,3.864-1.016c0.779,0.041,1.56,0.054,2.339,0.098c0.481,0.027,0.837-0.156,1.077-0.567  c0.98-1.672,1.747-2.182,4.281-1.581c1.365,0.323,2.727,0.316,4.102,0.271c1.191-0.04,2.145-0.59,2.992-1.398  c2.57-2.456,5.479-2.479,8.137-0.087C50.003,13.295,50.041,13.314,50.097,13.352z M66.281,80.371  c0.018,0.012,0.039,0.018,0.062,0.018c-0.785-0.754-1.572-1.514-2.09-2.486c-0.191-0.359-0.422-0.387-0.744-0.305  c-0.998,0.252-1.793,0.789-2.351,1.662c-0.814,1.277-0.765,2.928,0.124,4.168c0.882,1.227,2.404,1.803,3.854,1.457  c1.504-0.359,2.65-1.572,2.866-3.037c0.029-0.195,0.095-0.398-0.147-0.537C67.326,81.006,66.805,80.686,66.281,80.371z   M28.746,36.002c-1.421-0.722-2.532-1.801-3.335-3.194c-0.337-0.585-0.731-1.14-1.127-1.688c-0.932-1.293-2.099-2.287-3.734-2.483  c-1.631-0.195-3.274-0.253-4.918-0.056c-0.419,0.05-0.614,0.235-0.709,0.623c-0.162,0.66-0.256,1.328-0.323,2.003  c-0.206,2.089-0.051,4.189-0.235,6.28c-0.245,2.778-0.646,5.503-2.194,7.919c-0.23,0.36-0.388,0.768-0.577,1.153  c-0.961,1.956-1.009,3.903,0.083,5.826c0.526,0.927,1.083,1.837,1.635,2.749c0.812,1.342,1.566,2.72,1.73,4.304  c0.12,1.161,0.088,2.339,0.119,3.509c0.035,1.292,0.084,2.583,0.352,3.858c0.464,2.219,1.869,3.812,3.525,5.199  c1.661,1.391,3.174,2.918,4.618,4.521c1.498,1.666,3.312,2.732,5.571,2.955c1.053,0.105,1.563-0.227,1.912-1.234  c0.221-0.639,0.394-1.295,0.608-1.936c0.206-0.613,0.535-1.158,1.039-1.574c0.417-0.342,0.926-0.311,1.28,0.049  c0.354,0.359,0.399,0.885,0.031,1.275c-0.414,0.438-0.608,0.959-0.771,1.516c-0.235,0.805-0.422,1.629-0.896,2.344  c-0.474,0.713-0.48,0.725,0.198,1.27c1.357,1.09,2.951,1.66,4.611,2.096c0.46,0.119,0.589,0.09,0.545-0.436  c-0.203-2.434,0.534-4.576,2.099-6.436c0.911-1.084,2.05-1.871,3.368-2.443c-0.474-0.637-0.876-1.258-1.147-1.949  c-0.129-0.328-0.283-0.34-0.585-0.221c-1.536,0.6-3.125,0.846-4.769,0.613c-4.027-0.568-6.851-2.758-8.166-6.576  c-1.332-3.863-0.518-7.436,2.427-10.31c5-4.878,13.149-3.231,15.958,3.151c0.158,0.359,0.282,0.438,0.667,0.292  c1.509-0.565,3.079-0.707,4.668-0.475c0.408,0.06,0.438-0.032,0.394-0.383c-0.257-2.026,0.149-3.922,1.214-5.661  c0.226-0.37,0.222-0.569-0.093-0.904c-2.653-2.827-3.635-6.171-2.726-9.937c1.731-7.165,9.704-10.458,16.019-6.669  c0.362,0.218,0.508,0.194,0.758-0.151c1.495-2.062,3.512-3.278,6.044-3.638c5.473-0.777,10.836,3.79,9.977,10.023  c-0.793,5.762-6.509,9.077-11.973,7.081c-0.334-0.122-0.48-0.121-0.629,0.235c-0.482,1.147-1.172,2.171-2.062,3.038  c-0.347,0.337-0.327,0.547-0.097,0.955c1.752,3.104,1.79,6.255-0.104,9.279c-1.865,2.979-4.674,4.326-8.188,4.139  c-0.396-0.021-0.497,0.012-0.419,0.43c0.428,2.264,0.062,4.414-1.047,6.424c-1.113,2.016-2.762,3.449-4.899,4.295  c-0.401,0.158-0.447,0.268-0.207,0.617c0.302,0.439,0.509,0.934,0.693,1.436c0.711,1.934,0.716,3.887,0.132,5.887  c0.538,0.023,1.01-0.131,1.494-0.188c0.479-0.057,0.523-0.225,0.352-0.67c-1.728-4.512,0.795-9.393,5.468-10.568  c0.446-0.111,0.565-0.262,0.585-0.711c0.281-6.578,7.226-10.674,13.131-7.76c1.589,0.783,2.832,1.943,3.764,3.447  c0.082,0.135,0.123,0.562,0.44,0.209c0.872-0.971,1.976-1.668,2.946-2.52c0.613-0.539,1.002-1.193,1.144-1.986  c0.217-1.215,0.311-2.438,0.175-3.784c-0.676,0.596-1.223,1.18-1.874,1.64c-1.409,0.996-2.85,1.053-4.314,0.139  c-0.347-0.217-0.678-0.464-0.994-0.725c-0.731-0.602-1.494-1.057-2.509-0.977c-0.562,0.045-0.939-0.389-0.945-0.915  c-0.006-0.55,0.379-0.897,0.988-0.946c1.332-0.106,2.44,0.39,3.455,1.203c1.916,1.537,2.505,1.527,4.229-0.195  c1.08-1.082,2.172-2.114,3.633-2.678c0.889-0.343,1.248-1.075,1.279-1.996c0.045-1.313,0.067-2.627,0.146-3.939  c0.123-2.018-0.051-3.998-0.924-5.835c-1.205-2.536-1.486-5.113-0.766-7.842c0.614-2.329-0.016-4.387-1.675-6.124  c-0.496-0.521-1.011-1.023-1.524-1.525c-1.16-1.134-2.246-2.346-3.526-3.357c-0.31-0.245-0.446-0.223-0.606,0.14  c-0.4,0.903-0.905,1.75-1.561,2.496c-1.207,1.378-2.676,2.077-4.541,1.697c-0.76-0.155-1.1-0.553-0.993-1.146  c0.106-0.6,0.569-0.871,1.332-0.704c0.981,0.214,1.794-0.08,2.458-0.778c1.231-1.289,1.973-2.854,2.459-4.55  c0.199-0.697-0.049-1.26-0.611-1.675c-0.652-0.483-1.385-0.848-2.199-0.887c-2.68-0.129-4.924-1.296-7.028-2.833  c-1.579-1.155-2.974-2.529-4.489-3.757c-1.017-0.824-2.113-1.485-3.422-1.734c-1.924-0.365-3.849-0.325-5.746,0.124  c-2.112,0.499-2.932,1.446-3.234,3.579c-0.229,1.62,0.168,3.185,0.469,4.755c0.893,4.658,0.616,9.146-1.879,13.329  c-0.444,0.743-0.699,1.557-0.852,2.419c-0.333,1.895-1.513,3.038-3.409,3.391c-0.161,0.029-0.325,0.056-0.488,0.059  c-0.58,0.008-1.025-0.376-1.056-0.899c-0.03-0.509,0.316-0.88,0.901-0.969c1.396-0.214,2.029-0.756,2.226-2.057  c0.179-1.182,0.664-2.229,1.229-3.256c0.316-0.574,0.708-1.127,0.906-1.742c0.989-3.055,1.336-6.163,0.676-9.349  c-0.441-2.13-0.921-4.264-0.529-6.465c0.021-0.118,0.026-0.22-0.058-0.341c-1.416-2.058-4.54-2.438-5.913-0.725  c-1.281,1.6-3.104,2.188-5.156,2.153c-1.379-0.024-2.757,0.002-4.088-0.412c-0.925-0.288-1.55-0.05-2.023,0.827  c-0.542,1.007-1.449,1.47-2.606,1.424c-1.047-0.042-2.094-0.061-3.141-0.104c-0.87-0.036-1.635,0.17-2.166,0.912  c-0.321,0.448-0.615,0.919-0.913,1.385c-0.479,0.75-0.979,1.474-1.829,1.858c-1.525,0.689-2.202,1.862-2.114,3.541  c0.025,0.47,0.157,0.573,0.578,0.583c2.691,0.062,4.65,1.406,6.134,3.558c0.361,0.523,0.735,1.042,1.051,1.592  c0.623,1.083,1.469,1.941,2.578,2.489c1.763,0.87,3.045,2.186,3.938,3.922c0.678,1.317,1.786,2.097,3.209,2.48  c0.809,0.218,1.621,0.447,2.369,0.847c0.981,0.524,1.516,1.341,1.639,2.445c0.133,1.197,0.007,2.379-0.209,3.555  c-0.131,0.714-0.535,1.04-1.11,0.943c-0.599-0.102-0.866-0.578-0.735-1.32c0.151-0.853,0.229-1.708,0.219-2.575  c-0.009-0.762-0.301-1.304-1.053-1.547c-0.546-0.177-1.084-0.38-1.638-0.527c-1.949-0.521-3.438-1.637-4.374-3.425 M61.681,38.164  c-0.325,0.009-0.877,0.033-1.417,0.18c-2.26,0.615-3.781,2.04-4.408,4.285c-0.629,2.25-0.046,4.255,1.574,5.946  c0.21,0.219,0.396,0.387,0.785,0.231c2.23-0.891,4.477-0.862,6.701,0.038c0.254,0.102,0.406,0.069,0.594-0.104  c0.973-0.904,1.623-1.985,1.914-3.291c0.109-0.484,0.082-0.894-0.183-1.339c-0.507-0.851-0.909-1.798-0.907-2.776  c0.002-1.234-0.703-1.837-1.617-2.364C63.85,38.468,62.91,38.207,61.681,38.164z M51.035,73.279c2.244-0.004,4.226-1.434,4.943-3.57  c0.707-2.102-0.002-4.414-1.771-5.78c-1.759-1.359-4.18-1.447-6.044-0.234c-0.307,0.2-0.503,0.427-0.57,0.808  c-0.239,1.371-0.785,2.625-1.586,3.762c-0.141,0.199-0.183,0.383-0.141,0.625C46.31,71.438,48.478,73.285,51.035,73.279z   M46.084,62.639c0.04-4.423-3.624-8.179-8.03-8.233c-4.504-0.054-8.292,3.571-8.334,7.977c-0.044,4.642,3.547,8.38,8.079,8.411  C42.349,70.822,46.043,67.186,46.084,62.639z M57.273,57.072c0.007,2.317,1.923,4.224,4.242,4.221  c2.322-0.004,4.225-1.907,4.227-4.229c0.002-2.349-1.938-4.285-4.268-4.262C59.163,52.823,57.266,54.754,57.273,57.072z   M46.638,78.074c-2.341-0.004-4.246,1.877-4.253,4.199c-0.007,2.342,1.948,4.314,4.254,4.289c2.3-0.027,4.236-1.975,4.236-4.264  C50.875,79.99,48.957,78.076,46.638,78.074z M64.676,73.205c-0.021,4.074,3.289,7.43,7.357,7.459  c4.022,0.029,7.461-3.312,7.438-7.305c-0.023-4.352-3.33-7.434-7.223-7.49C68.045,65.807,64.696,69.09,64.676,73.205z   M82.092,39.973c0.002-3.86-3.182-7.059-7.002-7.036c-3.834,0.021-6.985,3.164-7,6.98c-0.015,3.857,3.128,7.038,6.975,7.06  C78.902,46.999,82.09,43.821,82.092,39.973z M59.027,62.715c0.629,1.216,0.629,1.218,1.754,1.297  c0.389,0.027,0.773,0.049,1.165,0.021c2.946-0.203,5.468-2.202,6.287-5.007c0.817-2.798-0.192-5.82-2.532-7.574  c-2.289-1.717-5.389-1.873-7.815-0.391c-2.456,1.498-3.756,4.332-3.29,7.174c0.162,0.993,0.279,1.122,1.318,1.448  c-1.026-3.458-0.284-6.079,2.189-7.737c2.179-1.46,5.138-1.344,7.195,0.283c2.117,1.673,2.902,4.531,1.924,7.041  c-0.494,1.264-1.314,2.269-2.471,2.983C62.951,63.366,61.039,63.402,59.027,62.715z M47.826,61.906  c3.782-1.729,7.908-0.294,9.504,3.277c1.598,3.576,0.029,7.652-3.542,9.236c-3.241,1.438-7.795,0.207-9.4-4.264  c-1.032,0.668-0.882,0.449-0.43,1.363c1.514,3.057,4.723,4.754,8.097,4.217c3.109-0.494,5.242-2.277,6.228-5.268  c0.987-2.994,0.312-5.713-1.915-7.919c-2.23-2.213-4.949-2.771-7.956-1.856C47.592,60.942,47.599,60.966,47.826,61.906z   M45.678,76.184c-0.541-0.219-0.75-0.832-1.452-0.572c-3.774,1.402-5.639,5.725-4.019,9.4c1.642,3.727,6.097,5.291,9.676,3.4  c3.571-1.889,4.82-6.42,2.716-9.846c-0.578-0.939-0.639-0.967-1.743-0.771c2.223,2.855,2.497,5.568,0.807,7.996  c-1.532,2.199-4.271,3.148-6.851,2.375c-2.453-0.734-4.284-3.133-4.301-5.633C40.49,79.332,42.086,77.332,45.678,76.184z   M52.656,43.886c0.068,2.582,0.967,4.745,2.383,6.231c0.283,0.296,0.471,0.417,0.832,0.077c0.4-0.377-0.006-0.492-0.154-0.661  c-3.464-3.958-2.252-10.144,2.473-12.428c2.66-1.287,5.279-1.092,7.814,0.416c0.139,0.082,0.332,0.417,0.48,0.115  c0.148-0.304,0.373-0.661-0.157-0.977c-3.003-1.791-6.075-1.967-9.122-0.262C54.154,38.107,52.713,40.84,52.656,43.886z   M58.279,81.277c0.003,3.131,2.298,5.607,5.561,6c2.781,0.336,5.622-1.715,6.326-4.578c0.047-0.189,0.291-0.443-0.146-0.578  c-0.477-0.148-0.391,0.205-0.449,0.422c-0.707,2.629-3.053,4.322-5.693,4.1c-2.637-0.225-4.704-2.266-4.961-4.9  c-0.252-2.592,1.4-4.959,3.988-5.719c0.203-0.059,0.531,0.01,0.38-0.426c-0.138-0.393-0.363-0.223-0.582-0.162  C60.074,76.166,58.277,78.541,58.279,81.277z M69.076,46.618c-0.402,1.173-0.992,2.216-1.856,3.091  c-0.167,0.169-0.335,0.308-0.021,0.511c0.215,0.14,0.354,0.39,0.641,0.062c0.651-0.743,1.213-1.539,1.68-2.414  C69.831,47.28,69.79,46.885,69.076,46.618z"/><path fill-rule="evenodd" clip-rule="evenodd" fill="#000000" d="M65.951,81.506c-0.206-0.164-0.725,0.305-0.691-0.336  c0.027-0.508,0.466-0.818,1.084-0.781c-0.023,0-0.045-0.006-0.062-0.018c0.363,0.527-0.135,0.795-0.348,1.15L65.951,81.506z"/><path fill-rule="evenodd" clip-rule="evenodd" fill="#000000" d="M23.083,55.206c0.478-1.369,0.737-2.771,0.896-4.193  c0.334-3-0.061-5.89-1.273-8.666c-0.283-0.646-0.156-0.846,0.529-0.986c0.101-0.021,0.202-0.036,0.302-0.057  c1.588-0.313,2.229,0.005,2.501,1.579c0.423,2.442,1.106,4.846,1.178,7.348c0.05,1.745-0.227,3.428-0.821,5.067  c-0.964,2.658-2.236,5.188-3.233,7.834c-0.11,0.294-0.178,0.577-0.173,0.892c0.02,1.211,0.043,2.428-0.26,3.615  c-0.346,1.348-1.132,1.861-2.312,1.572c-0.365-0.088-0.504-0.213-0.451-0.617c0.095-0.711,0.1-1.434,0.176-2.146  c0.037-0.35-0.012-0.57-0.382-0.707c-0.55-0.203-0.764-0.545-0.369-1.115c1.023-1.479,0.973-3.155,0.871-4.848  c-0.176-2.904-0.611-5.748-1.784-8.442c-0.795-1.829-1.892-3.447-3.272-4.881c-0.617-0.641-0.596-0.794,0.144-1.257  c0.069-0.044,0.137-0.09,0.207-0.134c1.309-0.836,1.89-0.859,2.73,0.457c1.537,2.411,3.276,4.725,4.21,7.481  C22.741,53.72,22.917,54.457,23.083,55.206z"/><path fill-rule="evenodd" clip-rule="evenodd" fill="#000000" d="M46.062,24.718c-0.087,1.146-0.148,2.294-0.267,3.435  c-0.151,1.458-0.753,2.757-1.52,3.984c-0.728,1.165-1.491,2.309-2.191,3.488c-0.603,1.016-0.987,2.108-0.942,3.324  c0.02,0.545-0.408,0.963-0.912,0.97c-0.51,0.008-0.914-0.37-0.95-0.928c-0.098-1.505,0.372-2.868,1.071-4.172  c0.543-1.014,1.192-1.962,1.835-2.913c1.037-1.537,1.784-3.157,1.854-5.062c0.073-2.011,0.25-4.018-0.169-6.01  c-0.11-0.521-0.192-1.01-0.935-1.043c-0.439-0.02-0.686-0.458-0.662-0.909c0.025-0.472,0.291-0.802,0.784-0.897  c0.83-0.161,1.567,0.163,2.06,0.91c0.538,0.814,0.691,1.749,0.797,2.686C46.032,22.622,46.085,23.668,46.062,24.718z"/><path fill-rule="evenodd" clip-rule="evenodd" fill="#000000" d="M61.319,26.869c2.449,0.438,3.556-1.352,4.624-3.2  c0.195-0.337,0.355-0.697,0.583-1.009c0.46-0.632,1.101-0.923,1.88-0.806c0.509,0.076,0.816,0.425,0.81,0.937  c-0.007,0.47-0.254,0.855-0.761,0.901c-0.403,0.037-0.549,0.271-0.695,0.583c-0.461,0.97-1.073,1.842-1.764,2.66  c-1.045,1.234-2.378,1.857-3.997,1.847c-0.698-0.004-1.397-0.015-2.094-0.051c-0.583-0.03-0.915-0.398-0.907-0.95  c0.008-0.55,0.355-0.894,0.939-0.91C60.349,26.861,60.76,26.869,61.319,26.869z"/><path fill-rule="evenodd" clip-rule="evenodd" fill="#000000" d="M64.309,19.188c-0.002,0.627-0.221,1.093-0.502,1.522  c-0.67,1.027-1.524,1.877-2.557,2.541c-0.203,0.131-0.439,0.22-0.67,0.296c-0.576,0.187-1.087-0.031-1.268-0.521  c-0.188-0.513,0.044-0.972,0.604-1.232c1-0.466,1.705-1.251,2.32-2.14c0.191-0.276,0.102-0.45-0.122-0.617  c-0.526-0.391-1.054-0.778-1.583-1.166c-0.451-0.33-0.88-0.686-1.155-1.177c-0.239-0.428-0.171-0.851,0.198-1.169  c0.393-0.339,0.896-0.375,1.224,0.007c0.653,0.769,1.533,1.226,2.296,1.84c0.467,0.376,0.904,0.78,1.104,1.369  C64.257,18.915,64.287,19.096,64.309,19.188z"/><path fill-rule="evenodd" clip-rule="evenodd" fill="#000000" d="M18.786,33.164c0.903,0.021,1.552,0.469,1.994,1.229  c0.246,0.424,0.465,0.865,0.667,1.312c0.214,0.472,0.555,0.745,1.069,0.811c0.549,0.069,1.097,0.144,1.645,0.225  c0.745,0.108,1.424,0.383,1.997,0.879c0.394,0.339,0.466,0.885,0.198,1.273c-0.297,0.429-0.868,0.585-1.296,0.245  c-0.624-0.495-1.343-0.599-2.077-0.643c-1.673-0.102-2.895-0.802-3.47-2.449c-0.086-0.248-0.233-0.479-0.373-0.704  c-0.108-0.176-0.24-0.304-0.493-0.294c-0.804,0.029-1.194-0.252-1.224-0.842c-0.032-0.618,0.399-0.999,1.18-1.042  C18.663,33.161,18.724,33.164,18.786,33.164z"/><path fill-rule="evenodd" clip-rule="evenodd" fill="#000000" d="M40.679,26.79c0,1.013-0.161,1.997-0.605,2.918  c-0.246,0.511-0.738,0.699-1.224,0.503c-0.454-0.184-0.743-0.69-0.529-1.16c0.779-1.711,0.45-3.404,0.011-5.106  c-0.087-0.337-0.182-0.673-0.247-1.014c-0.098-0.512,0.185-0.978,0.648-1.108c0.507-0.144,1.018,0.101,1.163,0.631  C40.285,23.874,40.678,25.297,40.679,26.79z"/><path fill-rule="evenodd" clip-rule="evenodd" fill="#000000" d="M49.767,49.01c0.112,1.884-0.159,3.532-1.44,4.864  c-0.241,0.251-0.49,0.504-0.773,0.7c-0.432,0.3-0.869,0.219-1.229-0.142c-0.342-0.342-0.373-0.979,0.026-1.277  c1.55-1.155,1.638-2.788,1.566-4.491c-0.014-0.328-0.026-0.657-0.019-0.985c0.013-0.646,0.402-1.064,0.953-1.048  c0.542,0.018,0.903,0.414,0.915,1.027C49.774,48.152,49.767,48.644,49.767,49.01z"/><path fill-rule="evenodd" clip-rule="evenodd" fill="#000000" d="M45.568,50.485c0,0.246,0.019,0.494-0.004,0.739  c-0.051,0.556-0.46,0.934-0.969,0.919c-0.515-0.015-0.876-0.4-0.895-0.972c-0.058-1.748-0.202-3.483-0.571-5.196  c-0.156-0.727,0.141-1.23,0.73-1.33c0.561-0.096,0.968,0.254,1.118,0.954C45.319,47.209,45.507,48.839,45.568,50.485z"/><path fill-rule="evenodd" clip-rule="evenodd" fill="#000000" d="M62.771,41.708c-0.055,0.277,0,0.665-0.319,0.793  c-0.28,0.112-0.524-0.153-0.741-0.333c-0.314-0.263-0.465-0.614-0.521-1.012c-0.037-0.278-0.018-0.556,0.24-0.71  c0.251-0.149,0.517-0.068,0.749,0.092C62.58,40.816,62.756,41.213,62.771,41.708z"/><path fill-rule="evenodd" clip-rule="evenodd" fill="#000000" d="M60.008,45.015c-0.041,0.566-0.278,1.057-0.822,1.374  c-0.23,0.134-0.461,0.185-0.689,0.035c-0.213-0.138-0.234-0.369-0.228-0.602c0.017-0.688,0.704-1.33,1.38-1.292  C59.938,44.546,59.998,44.622,60.008,45.015z"/><path fill-rule="evenodd" clip-rule="evenodd" fill="#000000" d="M63.959,44.759c0.744,0.003,1.279,0.367,1.239,0.773  c-0.042,0.415-0.632,0.72-1.239,0.633c-0.504-0.071-1.046-0.355-1.025-0.803C62.955,44.845,63.605,44.843,63.959,44.759z"/><path fill-rule="evenodd" clip-rule="evenodd" fill="#000000" d="M60.065,43.292c-0.097,0.237,0.054,0.657-0.398,0.698  c-0.526,0.047-1.271-0.8-1.242-1.407c0.015-0.286,0.061-0.585,0.468-0.583C59.509,42.001,60.07,42.603,60.065,43.292z"/><path fill-rule="evenodd" clip-rule="evenodd" fill="#000000" d="M64.102,43.403c-0.385-0.063-0.93-0.164-0.988-0.656  c-0.053-0.447,0.469-0.592,0.855-0.722c0.039-0.015,0.08-0.022,0.119-0.029c0.594-0.096,1.193,0.177,1.221,0.552  C65.336,42.912,64.699,43.39,64.102,43.403z"/><path fill-rule="evenodd" clip-rule="evenodd" fill="#000000" d="M57.879,44.657c-0.73,0.004-1.363-0.376-1.284-0.785  c0.099-0.511,0.562-0.596,1.002-0.608c0.53-0.015,1.231,0.484,1.171,0.883C58.688,44.674,58.191,44.604,57.879,44.657z"/><path fill-rule="evenodd" clip-rule="evenodd" fill="#000000" d="M63.07,41.201c-0.01-0.217,0.031-0.481,0.178-0.711  c0.234-0.366,0.533-0.799,1.006-0.576c0.447,0.212,0.363,0.726,0.256,1.149c-0.078,0.31-0.289,0.534-0.565,0.693  C63.335,42.105,63.074,41.956,63.07,41.201z"/><path fill-rule="evenodd" clip-rule="evenodd" fill="#000000" d="M61.117,47.031c-0.003-0.719,0.51-1.331,1.086-1.321  c0.518,0.008,0.392,0.442,0.402,0.729c0.023,0.668-0.448,1.288-0.948,1.301C61.098,47.754,61.184,47.305,61.117,47.031z"/><path fill-rule="evenodd" clip-rule="evenodd" fill="#000000" d="M62.933,46.927c0.062-0.222-0.081-0.592,0.394-0.581  c0.609,0.014,1.271,0.71,1.268,1.35c-0.003,0.32-0.078,0.553-0.479,0.544C63.457,48.228,62.924,47.662,62.933,46.927z"/><path fill-rule="evenodd" clip-rule="evenodd" fill="#000000" d="M52.693,69.918c-0.021-0.383,0.203-0.484,0.52-0.465  c0.387,0.023,0.723,0.141,0.885,0.533c0.068,0.166,0.057,0.346-0.131,0.418c-0.471,0.182-0.879,0.066-1.205-0.393  c-0.104,0.404,0.053,0.883-0.424,0.982c-0.295,0.062-0.469-0.225-0.555-0.48c-0.119-0.357-0.067-0.717,0.256-0.938  C52.384,69.342,52.443,69.799,52.693,69.918z"/><path fill-rule="evenodd" clip-rule="evenodd" fill="#000000" d="M51.405,66.586c0.466-0.129,0.829-0.469,1.124-0.082  c0.199,0.264-0.025,0.545-0.234,0.75c-0.263,0.256-0.629,0.326-0.906,0.145c-0.391-0.26,0.061-0.523,0.105-0.838  c-0.237,0.004-0.531,0.17-0.658-0.219c-0.124-0.377-0.153-0.73,0.081-1.053c0.185-0.252,0.408-0.229,0.604,0.025  C51.836,65.719,51.714,66.107,51.405,66.586z"/><path fill-rule="evenodd" clip-rule="evenodd" fill="#000000" d="M50.52,67.463c-0.482,0.004-1.005-0.418-1.004-0.795  c0.001-0.312,0.221-0.365,0.45-0.375c0.444-0.02,0.916,0.467,0.916,0.896C50.882,67.465,50.717,67.475,50.52,67.463z"/><path fill-rule="evenodd" clip-rule="evenodd" fill="#000000" d="M50.291,70.229c-0.031,0.365-0.068,0.764-0.475,0.768  c-0.402,0.004-0.484-0.383-0.484-0.725c0-0.395,0.161-0.818,0.563-0.805C50.247,69.48,50.267,69.932,50.291,70.229z"/><path fill-rule="evenodd" clip-rule="evenodd" fill="#000000" d="M49.173,69.297c-0.461-0.072-0.89-0.182-0.964-0.66  c-0.056-0.365,0.323-0.393,0.563-0.393c0.462-0.002,0.78,0.273,0.849,0.727C49.675,69.326,49.288,69.16,49.173,69.297z"/><path fill-rule="evenodd" clip-rule="evenodd" fill="#000000" d="M49.202,69.92c-0.001,0.25-0.486,0.729-0.89,0.729  c-0.225,0-0.393-0.07-0.399-0.344c-0.01-0.414,0.436-0.861,0.878-0.846C48.99,69.465,49.216,69.48,49.202,69.92z"/><path fill-rule="evenodd" clip-rule="evenodd" fill="#000000" d="M53.295,68.178c0.248,0.004,0.441,0.064,0.438,0.373  c-0.005,0.369-0.464,0.773-0.901,0.732c-0.206-0.02-0.534,0.025-0.525-0.342C52.316,68.59,52.869,68.176,53.295,68.178z"/><path fill-rule="evenodd" clip-rule="evenodd" fill="#000000" d="M37.927,55.761c3.802,0,6.902,3.107,6.884,6.898  c-0.019,3.802-3.103,6.847-6.933,6.841c-3.773-0.006-6.843-3.082-6.847-6.86C31.028,58.838,34.113,55.761,37.927,55.761z   M37.922,57.469c-2.855,0-5.181,2.315-5.183,5.161c-0.001,2.837,2.341,5.179,5.178,5.181c2.836,0,5.178-2.338,5.185-5.176  C43.11,59.795,40.777,57.469,37.922,57.469z"/><path fill-rule="evenodd" clip-rule="evenodd" fill="#000000" d="M63.434,57.513c0.143-0.022,0.283-0.056,0.424-0.062  c0.277-0.008,0.529,0.06,0.688,0.312c0.071,0.114,0.068,0.237-0.033,0.335c-0.224,0.212-0.488,0.294-0.786,0.196  c-0.114-0.037-0.217-0.112-0.327-0.17c-0.103,0.085-0.021,0.169,0.004,0.258c0.07,0.262,0.146,0.576-0.178,0.678  c-0.311,0.099-0.526-0.144-0.666-0.414c-0.145-0.284-0.102-0.552,0.096-0.793c0.029-0.037,0.134-0.064,0.161-0.042  c0.442,0.351,0.422-0.208,0.628-0.315L63.434,57.513z"/><path fill-rule="evenodd" clip-rule="evenodd" fill="#000000" d="M61.361,55.381c0.049-0.026,0.1-0.047,0.145-0.08  c0.21-0.153,0.41-0.399,0.699-0.219c0.234,0.146,0.163,0.397,0.082,0.61c-0.129,0.345-0.41,0.5-0.762,0.518  c-0.188,0.008-0.205-0.144-0.234-0.295c-0.027-0.145,0.18-0.312-0.041-0.433L61.232,55.5c0.169,0.082,0.146-0.034,0.139-0.135  L61.361,55.381z"/><path fill-rule="evenodd" clip-rule="evenodd" fill="#000000" d="M61.25,55.482c-0.172,0.246-0.45-0.051-0.637,0.123l0.016,0.015  c0.228-0.248-0.135-0.356-0.134-0.564c0.001-0.263-0.065-0.528,0.155-0.739c0.104-0.099,0.231-0.1,0.339-0.035  c0.242,0.145,0.349,0.37,0.384,0.653c0.02,0.154-0.16,0.297-0.012,0.446l0.01-0.016c-0.16-0.073-0.125,0.057-0.139,0.135  L61.25,55.482z"/><path fill-rule="evenodd" clip-rule="evenodd" fill="#000000" d="M63.443,57.496c-0.023-0.032-0.049-0.091-0.072-0.09  c-0.244,0.003-0.583,0.285-0.68-0.168c-0.08-0.383,0.375-0.888,0.758-0.896c0.457-0.011,0.402,0.286,0.346,0.591  c-0.046,0.242-0.371,0.304-0.359,0.579C63.434,57.513,63.443,57.496,63.443,57.496z"/><path fill-rule="evenodd" clip-rule="evenodd" fill="#000000" d="M60.054,57.446c0.386-0.001,0.724,0.156,0.755,0.506  c0.029,0.312-0.344,0.358-0.6,0.372c-0.342,0.017-0.712-0.067-0.727-0.476C59.471,57.527,59.807,57.483,60.054,57.446z"/><path fill-rule="evenodd" clip-rule="evenodd" fill="#000000" d="M60.613,55.605c0.027,0.048,0.047,0.104,0.083,0.142  c0.155,0.163,0.378,0.347,0.278,0.566c-0.114,0.255-0.422,0.21-0.66,0.177c-0.336-0.046-0.697-0.18-0.659-0.573  c0.04-0.434,0.44-0.309,0.732-0.305c0.081,0.001,0.161,0.005,0.241,0.008L60.613,55.605z"/><path fill-rule="evenodd" clip-rule="evenodd" fill="#000000" d="M61.761,59.041c-0.005,0.304-0.032,0.591-0.364,0.555  c-0.422-0.046-0.545-0.394-0.538-0.76c0.005-0.255,0.046-0.641,0.358-0.592C61.609,58.305,61.748,58.693,61.761,59.041z"/><path fill-rule="evenodd" clip-rule="evenodd" fill="#000000" d="M60.648,58.916c-0.026,0.355-0.179,0.696-0.631,0.783  c-0.324,0.062-0.369-0.186-0.36-0.424c0.016-0.454,0.284-0.7,0.714-0.775C60.654,58.451,60.646,58.661,60.648,58.916z"/><path fill-rule="evenodd" clip-rule="evenodd" fill="#000000" d="M47.332,80.895c-0.196-0.092-0.576,0.033-0.514-0.398  c0.053-0.371,0.208-0.664,0.562-0.807c0.144-0.057,0.337-0.094,0.415,0.115c0.173,0.461-0.061,0.775-0.441,1.047  c0.263,0.238,0.857,0.004,0.797,0.555c-0.032,0.283-0.328,0.41-0.595,0.457c-0.276,0.047-0.575-0.043-0.693-0.287  C46.659,81.154,47.216,81.18,47.332,80.895z"/><path fill-rule="evenodd" clip-rule="evenodd" fill="#000000" d="M47.66,83.773c-0.33-0.004-0.716-0.133-0.693-0.443  c0.025-0.342,0.436-0.438,0.78-0.426c0.292,0.012,0.643,0.068,0.613,0.432C48.331,83.693,47.995,83.783,47.66,83.773z"/><path fill-rule="evenodd" clip-rule="evenodd" fill="#000000" d="M44.591,83.02c0.247-0.016,0.495-0.422,0.73-0.045  c0.196,0.318-0.131,1.023-0.489,1.125c-0.319,0.09-0.467-0.092-0.47-0.377c-0.002-0.195,0.068-0.391,0.106-0.588l-0.017,0.002  c0.113,0.023,0.133-0.051,0.14-0.137L44.591,83.02z"/><path fill-rule="evenodd" clip-rule="evenodd" fill="#000000" d="M46.587,80.879c-0.037,0.191,0.041,0.447-0.25,0.484  c-0.308,0.037-0.77-0.541-0.747-0.922c0.014-0.221,0.087-0.432,0.356-0.389C46.4,80.127,46.58,80.447,46.587,80.879z"/><path fill-rule="evenodd" clip-rule="evenodd" fill="#000000" d="M46.975,84.244c0.031-0.154,0.002-0.365,0.286-0.354  c0.351,0.014,0.774,0.455,0.782,0.816c0.005,0.268-0.131,0.379-0.377,0.344C47.218,84.986,46.993,84.711,46.975,84.244z"/><path fill-rule="evenodd" clip-rule="evenodd" fill="#000000" d="M44.604,82.512c0.036-0.27-0.28-0.297-0.345-0.502  c-0.062-0.199-0.142-0.416,0.003-0.582c0.164-0.186,0.396-0.08,0.571,0.008c0.329,0.164,0.441,0.459,0.402,0.82  c-0.055,0.52-0.476,0.041-0.647,0.24L44.604,82.512z"/><path fill-rule="evenodd" clip-rule="evenodd" fill="#000000" d="M46.837,84.074c-0.02,0.414-0.106,0.768-0.524,0.822  c-0.328,0.043-0.366-0.258-0.37-0.506c-0.006-0.416,0.198-0.723,0.615-0.768C46.915,83.588,46.761,83.938,46.837,84.074z"/><path fill-rule="evenodd" clip-rule="evenodd" fill="#000000" d="M44.587,82.496c0.073,0.174-0.145,0.35,0.004,0.523L44.592,83  c-0.166-0.076-0.207-0.025-0.14,0.137l0.017-0.002c-0.237-0.158-0.372,0.145-0.593,0.127c-0.256-0.018-0.552-0.02-0.608-0.291  c-0.06-0.287,0.198-0.467,0.452-0.57c0.308-0.123,0.59,0.059,0.883,0.111L44.587,82.496z"/><path fill-rule="evenodd" clip-rule="evenodd" fill="#000000" d="M72.115,66.947c3.521,0.002,6.342,2.822,6.339,6.338  c-0.002,3.494-2.845,6.348-6.343,6.369c-3.492,0.021-6.388-2.889-6.369-6.402C65.76,69.734,68.578,66.945,72.115,66.947z   M72.068,77.943c2.529,0.021,4.68-2.105,4.697-4.646c0.017-2.512-2.074-4.627-4.605-4.66c-2.559-0.033-4.689,2.039-4.729,4.598  C67.393,75.75,69.531,77.922,72.068,77.943z"/><path fill-rule="evenodd" clip-rule="evenodd" fill="#000000" d="M81.25,39.97c0.006,3.417-2.695,6.146-6.105,6.168  c-3.413,0.02-6.191-2.747-6.19-6.164c0.001-3.379,2.757-6.127,6.153-6.136C78.512,33.83,81.242,36.557,81.25,39.97z M75.128,44.442  c2.42-0.006,4.42-2.01,4.433-4.442c0.013-2.44-2.029-4.486-4.462-4.472c-2.408,0.015-4.444,2.046-4.45,4.442  C70.64,42.397,72.695,44.449,75.128,44.442z"/><path fill-rule="evenodd" clip-rule="evenodd" fill="#000000" d="M65.934,81.521c0.199-0.016,0.402-0.062,0.598-0.043  c0.286,0.031,0.641,0.109,0.611,0.463c-0.029,0.369-0.404,0.449-0.707,0.402c-0.325-0.051-0.646-0.246-0.416,0.35  c0.054,0.137-0.051,0.326-0.206,0.41c-0.145,0.076-0.28-0.025-0.397-0.096c-0.373-0.229-0.418-0.584-0.312-0.963  c0.032-0.115,0.14-0.332,0.297-0.207c0.524,0.414,0.368-0.227,0.551-0.332L65.934,81.521z"/><path fill-rule="evenodd" clip-rule="evenodd" fill="#000000" d="M63.035,80.555c-0.359-0.066-0.758-0.119-0.816-0.568  c-0.043-0.326,0.25-0.373,0.504-0.375c0.443-0.002,0.774,0.227,0.832,0.648C63.59,80.531,63.246,80.496,63.035,80.555z"/><path fill-rule="evenodd" clip-rule="evenodd" fill="#000000" d="M64.92,79.42c0.02,0.406-0.355,0.795-0.767,0.809  c-0.201,0.006-0.298-0.061-0.308-0.273c-0.02-0.383,0.344-0.861,0.692-0.898C64.816,79.027,64.891,79.195,64.92,79.42z"/><path fill-rule="evenodd" clip-rule="evenodd" fill="#000000" d="M63.417,82.852c0.052-0.23,0.04-0.617,0.355-0.58  c0.403,0.047,0.546,0.436,0.554,0.83c0.005,0.252-0.01,0.539-0.352,0.516C63.537,83.586,63.465,83.227,63.417,82.852z"/><path fill-rule="evenodd" clip-rule="evenodd" fill="#000000" d="M62.67,81.463c0.336,0.043,0.678,0.162,0.689,0.502  c0.013,0.373-0.389,0.375-0.65,0.379c-0.305,0.004-0.681-0.098-0.68-0.465C62.031,81.541,62.402,81.512,62.67,81.463z"/><path fill-rule="evenodd" clip-rule="evenodd" fill="#000000" d="M63.217,82.875c0.006,0.438-0.359,0.895-0.699,0.873  c-0.292-0.02-0.295-0.238-0.291-0.449c0.008-0.469,0.284-0.701,0.717-0.775C63.232,82.475,63.219,82.686,63.217,82.875z"/><path fill-rule="evenodd" clip-rule="evenodd" fill="#000000" d="M63.942,78.99c-0.046,0.275-0.152,0.646-0.401,0.621  c-0.387-0.039-0.5-0.441-0.5-0.803c0-0.248,0.074-0.576,0.367-0.543C63.771,78.305,63.911,78.639,63.942,78.99z"/><path fill-rule="evenodd" clip-rule="evenodd" fill="#000000" d="M35.749,62.512c-0.249-0.051-0.6-0.027-0.662-0.435  c-0.051-0.331,0.408-0.68,0.879-0.658c0.354,0.017,0.711,0.115,0.815,0.5C36.84,62.143,36.201,62.503,35.749,62.512z"/><path fill-rule="evenodd" clip-rule="evenodd" fill="#000000" d="M40.027,61.9c-0.064-0.096-0.125-0.041-0.196-0.003  c-0.204,0.108-0.409,0.411-0.634,0.212c-0.282-0.251-0.234-0.648-0.122-0.978c0.096-0.283,0.236-0.616,0.612-0.591  c0.442,0.028,0.454,0.381,0.451,0.723c-0.002,0.228-0.265,0.402-0.127,0.654L40.027,61.9z"/><path fill-rule="evenodd" clip-rule="evenodd" fill="#000000" d="M36.776,60.826c0.065-0.446,0.141-0.904,0.657-0.908  c0.382-0.004,0.419,0.408,0.421,0.702c0.004,0.446-0.238,0.845-0.679,0.878C36.774,61.528,36.86,61.069,36.776,60.826z"/><path fill-rule="evenodd" clip-rule="evenodd" fill="#000000" d="M36.803,65.387c0.06-0.439,0.246-0.85,0.668-0.854  c0.392-0.004,0.418,0.473,0.409,0.768c-0.01,0.355-0.103,0.816-0.555,0.828C36.888,66.143,36.875,65.697,36.803,65.387z"/><path fill-rule="evenodd" clip-rule="evenodd" fill="#000000" d="M36.343,64.604c-0.154-0.012-0.399-0.053-0.417-0.377  c-0.02-0.359,0.454-0.747,0.903-0.731c0.284,0.008,0.611,0.029,0.679,0.372C37.571,64.182,36.906,64.621,36.343,64.604z"/><path fill-rule="evenodd" clip-rule="evenodd" fill="#000000" d="M40.15,62.537c0.084,0.078,0.168,0.157,0.253,0.234  c0.266,0.243,0.547,0.574,0.276,0.878c-0.269,0.302-0.681,0.145-0.985-0.1c-0.278-0.224-0.411-0.561-0.284-0.869  c0.142-0.344,0.5-0.079,0.758-0.126L40.15,62.537z"/><path fill-rule="evenodd" clip-rule="evenodd" fill="#000000" d="M37.899,64.23c0.012-0.193-0.051-0.429,0.286-0.415  c0.45,0.019,1.005,0.558,1.011,1.003c0.004,0.307-0.146,0.449-0.454,0.436C38.275,65.236,37.892,64.773,37.899,64.23z"/><path fill-rule="evenodd" clip-rule="evenodd" fill="#000000" d="M36.562,60.656c-0.065,0.188,0.027,0.516-0.361,0.492  c-0.419-0.025-0.904-0.598-0.884-1.036c0.011-0.244,0.075-0.438,0.389-0.429C36.148,59.697,36.566,60.148,36.562,60.656z"/><path fill-rule="evenodd" clip-rule="evenodd" fill="#000000" d="M40.167,62.555c-0.146-0.196-0.245-0.403-0.14-0.654l-0.017,0.018  c0.275-0.163,0.495-0.42,0.844-0.455c0.285-0.028,0.568-0.006,0.69,0.271c0.118,0.268-0.118,0.446-0.287,0.619  c-0.324,0.331-0.735,0.146-1.109,0.184C40.15,62.537,40.167,62.555,40.167,62.555z"/><path fill-rule="evenodd" clip-rule="evenodd" fill="#000000" d="M70.379,74.941c0.051-0.357,0.16-0.801,0.567-0.797  c0.343,0.004,0.405,0.443,0.413,0.777c0.006,0.348-0.084,0.725-0.464,0.744C70.504,75.684,70.414,75.305,70.379,74.941z"/><path fill-rule="evenodd" clip-rule="evenodd" fill="#000000" d="M71.025,70.973c0.484,0.006,0.955,0.48,0.932,0.906  c-0.015,0.262-0.196,0.271-0.387,0.27c-0.486-0.002-0.986-0.434-0.979-0.822C70.598,71.002,70.824,70.994,71.025,70.973z"/><path fill-rule="evenodd" clip-rule="evenodd" fill="#000000" d="M74.366,72.867c0.249-0.002,0.446,0.061,0.444,0.365  c-0.002,0.375-0.449,0.734-0.92,0.707c-0.203-0.012-0.491,0.043-0.538-0.266C73.303,73.342,73.928,72.857,74.366,72.867z"/><path fill-rule="evenodd" clip-rule="evenodd" fill="#000000" d="M69.799,72.904c0.481,0.033,0.802,0.268,0.887,0.719  c0.063,0.346-0.27,0.297-0.463,0.314c-0.468,0.045-0.989-0.326-0.955-0.662C69.301,72.945,69.594,72.971,69.799,72.904z"/><path fill-rule="evenodd" clip-rule="evenodd" fill="#000000" d="M72.711,71.047c0.071,0.146,0.162,0.039,0.25,0.025  c0.252-0.045,0.572-0.176,0.664,0.182c0.08,0.314-0.088,0.596-0.38,0.768c-0.281,0.164-0.606,0.236-0.854,0.01  c-0.26-0.24,0.172-0.484,0.088-0.754l-0.018,0.016c0.047,0.002,0.096,0.004,0.143,0.006c-0.002-0.049-0.004-0.096-0.006-0.143  l-0.014,0.012c0.047,0.008,0.08,0.078,0.145,0.014c0.067-0.064-0.002-0.1-0.008-0.146L72.711,71.047z"/><path fill-rule="evenodd" clip-rule="evenodd" fill="#000000" d="M69.938,74.143c0.252,0.01,0.366,0.123,0.322,0.391  c-0.069,0.408-0.583,0.857-0.951,0.801c-0.239-0.035-0.339-0.176-0.312-0.428C69.045,74.463,69.488,74.094,69.938,74.143z"/><path fill-rule="evenodd" clip-rule="evenodd" fill="#000000" d="M73.805,74.723c-0.012,0.076-0.035,0.152-0.034,0.229  c0.004,0.32-0.026,0.689-0.388,0.727c-0.289,0.033-0.49-0.262-0.548-0.562c-0.071-0.359-0.032-0.758,0.327-0.898  c0.4-0.158,0.391,0.4,0.661,0.523L73.805,74.723z"/><path fill-rule="evenodd" clip-rule="evenodd" fill="#000000" d="M73.823,74.74c-0.041-0.316-0.079-0.613,0.396-0.619  c0.452-0.006,0.957,0.314,0.977,0.656c0.014,0.238-0.137,0.301-0.33,0.355c-0.462,0.133-0.754-0.152-1.061-0.41L73.823,74.74z"/><path fill-rule="evenodd" clip-rule="evenodd" fill="#000000" d="M72.479,71.277c-0.355,0.1-0.549-0.084-0.619-0.398  c-0.08-0.367-0.102-0.746,0.239-1.014c0.215-0.168,0.371-0.031,0.513,0.145c0.264,0.326,0.089,0.691,0.1,1.037l0.01-0.012  c-0.148-0.061-0.133,0.047-0.137,0.133l0.014-0.012c-0.102-0.012-0.16,0.023-0.137,0.137L72.479,71.277z"/><path fill-rule="evenodd" clip-rule="evenodd" fill="#000000" d="M76.912,39.318c-0.264-0.037-0.457,0.538-0.758,0.102  c-0.218-0.313-0.049-1.006,0.279-1.21c0.35-0.217,0.521-0.035,0.611,0.301c0.078,0.297-0.1,0.547-0.146,0.822L76.912,39.318z"/><path fill-rule="evenodd" clip-rule="evenodd" fill="#000000" d="M75.094,41.824c0.055-0.258-0.218-0.646,0.139-0.758  c0.383-0.119,0.703,0.148,0.895,0.494c0.12,0.218,0.215,0.488-0.027,0.669c-0.222,0.167-0.472,0.06-0.676-0.098  c-0.125-0.097-0.231-0.212-0.346-0.319L75.094,41.824z"/><path fill-rule="evenodd" clip-rule="evenodd" fill="#000000" d="M77.146,39.943c0.068,0.072,0.143,0.141,0.207,0.217  c0.182,0.218,0.451,0.467,0.176,0.732c-0.25,0.241-0.58,0.117-0.836-0.082c-0.267-0.206-0.376-0.494-0.264-0.814  c0.078-0.219,0.344-0.035,0.486-0.158L76.9,39.819c0.017,0.186,0.168,0.108,0.266,0.138L77.146,39.943z"/><path fill-rule="evenodd" clip-rule="evenodd" fill="#000000" d="M75.078,41.812c-0.01,0.252,0.008,0.509-0.035,0.754  c-0.048,0.271-0.188,0.539-0.508,0.503c-0.285-0.032-0.327-0.313-0.379-0.56c-0.072-0.341,0.18-0.557,0.291-0.827l-0.011,0.012  c0.254-0.136,0.443,0.052,0.656,0.129C75.094,41.824,75.078,41.812,75.078,41.812z"/><path fill-rule="evenodd" clip-rule="evenodd" fill="#000000" d="M74.447,41.682c-0.172-0.188-0.316,0.045-0.484,0.033  c-0.227-0.015-0.489,0.037-0.59-0.21c-0.109-0.271,0.105-0.452,0.295-0.612c0.167-0.141,0.371-0.17,0.578-0.143  c0.181,0.023,0.384,0.042,0.469,0.238c0.08,0.182-0.067,0.299-0.162,0.429c-0.057,0.081-0.24,0.115-0.116,0.276L74.447,41.682z"/><path fill-rule="evenodd" clip-rule="evenodd" fill="#000000" d="M74.087,38.436c0.085-0.38,0.115-0.8,0.546-0.834  c0.373-0.028,0.42,0.328,0.424,0.618c0.007,0.395-0.212,0.71-0.578,0.762C74.087,39.04,74.232,38.594,74.087,38.436z"/><path fill-rule="evenodd" clip-rule="evenodd" fill="#000000" d="M73.234,39.851c-0.304-0.007-0.632-0.031-0.613-0.375  c0.023-0.423,0.381-0.538,0.758-0.537c0.316,0,0.73,0.08,0.694,0.418C74.03,39.76,73.598,39.856,73.234,39.851z"/><path fill-rule="evenodd" clip-rule="evenodd" fill="#000000" d="M73.935,38.24c-0.087,0.16,0.012,0.475-0.35,0.442  c-0.366-0.033-0.776-0.528-0.76-0.916c0.011-0.227,0.083-0.426,0.356-0.377C73.637,37.47,73.887,37.759,73.935,38.24z"/><path fill-rule="evenodd" clip-rule="evenodd" fill="#000000" d="M76.898,39.333c0.275,0.041,0.34-0.289,0.584-0.325  c0.305-0.044,0.67-0.176,0.801,0.195c0.124,0.348-0.192,0.536-0.473,0.688c-0.217,0.117-0.447-0.006-0.664,0.053l0.02,0.014  c-0.021-0.175-0.129-0.185-0.266-0.138l0.016,0.019c-0.002-0.174-0.003-0.347-0.004-0.52L76.898,39.333z"/></svg>
