<svg xmlns="http://www.w3.org/2000/svg" xmlns:xlink="http://www.w3.org/1999/xlink" version="1.1" x="0px" y="0px" viewBox="0 0 100 100" enable-background="new 0 0 100 100" xml:space="preserve"><path fill="none" stroke="#000000" stroke-miterlimit="10" d="M7.973,62.975c0-20.959,18.213-37.95,40.68-37.95  s40.68,16.991,40.68,37.95"/><path fill="none" stroke="#000000" stroke-miterlimit="10" d="M7.973,74.975c0-22.204,18.661-40.205,41.682-40.205  s41.682,18,41.682,40.205H7.973z"/><line fill="none" stroke="#000000" stroke-linecap="round" stroke-miterlimit="10" x1="54.66" y1="50.914" x2="45.236" y2="61.302"/><line fill="none" stroke="#000000" stroke-linecap="round" stroke-miterlimit="10" x1="67.271" y1="48.118" x2="58.384" y2="57.314"/><line fill="none" stroke="#000000" stroke-linecap="round" stroke-miterlimit="10" x1="55.151" y1="61.953" x2="51.814" y2="65.407"/><line fill="none" stroke="#000000" stroke-linecap="round" stroke-miterlimit="10" x1="45.236" y1="43.56" x2="40.175" y2="48.798"/><line fill="none" stroke="#000000" stroke-linecap="round" stroke-miterlimit="10" x1="35.184" y1="54.873" x2="33.061" y2="57.07"/><line fill="none" stroke="#000000" stroke-linecap="round" stroke-miterlimit="10" x1="28.106" y1="63.68" x2="25.087" y2="66.805"/><line fill="none" stroke="#000000" stroke-linecap="round" stroke-miterlimit="10" x1="80.64" y1="59.675" x2="77.132" y2="63.305"/><line fill="none" stroke="#000000" stroke-linecap="round" stroke-miterlimit="10" x1="75.764" y1="66.805" x2="74.019" y2="68.611"/><path d="M92.566,66.032c0.018-0.163,0.029-0.328,0.029-0.496c0-1.585-0.8-2.979-2.018-3.845c0.572-0.781,0.917-1.731,0.917-2.764  c0-1.862-1.104-3.457-2.697-4.241c0.106-0.39,0.18-0.793,0.18-1.215c0-1.734-0.958-3.237-2.375-4.071  c0.002-0.053,0.016-0.103,0.016-0.156c0-2.265-1.621-4.152-3.788-4.636c0.001-0.044,0.013-0.085,0.013-0.129  c0-2.631-2.183-4.765-4.876-4.765c-0.045,0-0.087,0.012-0.132,0.013c-0.496-2.118-2.427-3.702-4.744-3.702  c-0.534,0-1.038,0.105-1.519,0.259c-0.815-1.518-2.425-2.565-4.301-2.565c-0.419,0-0.819,0.068-1.207,0.165  c-0.804-1.551-2.433-2.624-4.334-2.624c-1.015,0-1.957,0.304-2.738,0.823c-0.848-1.406-2.396-2.36-4.188-2.36  c-1.041,0-2.002,0.325-2.794,0.868c-0.792-0.544-1.752-0.868-2.794-0.868c-1.191,0-2.267,0.434-3.114,1.126  c-0.847-0.693-1.923-1.126-3.114-1.126c-1.064,0-2.041,0.342-2.842,0.907c-0.621-0.28-1.305-0.446-2.034-0.446  c-2.033,0-3.773,1.218-4.504,2.946c-0.403-0.105-0.819-0.18-1.255-0.18c-1.75,0-3.272,0.908-4.132,2.261  c-0.484-0.157-0.992-0.263-1.53-0.263c-2.262,0-4.146,1.512-4.697,3.553c-0.061-0.002-0.118-0.018-0.179-0.018  c-2.426,0-4.423,1.736-4.797,4.004c-0.027,0-0.052-0.008-0.079-0.008c-2.693,0-4.876,2.133-4.876,4.765  c0,0.076,0.019,0.146,0.023,0.221c-2.009,0.589-3.483,2.388-3.483,4.543c0,1.067,0.372,2.042,0.978,2.836  c-1.427,0.831-2.394,2.339-2.394,4.08c0,0.228,0.037,0.447,0.069,0.666c-1.446,0.827-2.428,2.343-2.428,4.098  c0,0.999,0.317,1.924,0.855,2.69c-0.538,0.766-0.855,1.691-0.855,2.69c0,2.048,1.329,3.779,3.184,4.453  c0.025-0.669,0.066-1.334,0.125-1.994c0.001-0.006,0.001-0.011,0.001-0.017c0.058-0.653,0.132-1.301,0.222-1.945  c0.002-0.014,0.004-0.028,0.005-0.042c0.089-0.636,0.195-1.266,0.314-1.892c0.004-0.022,0.008-0.044,0.012-0.065  c0.119-0.618,0.254-1.23,0.402-1.837c0.007-0.03,0.014-0.059,0.021-0.089c0.147-0.598,0.309-1.19,0.484-1.778  c0.011-0.039,0.023-0.077,0.034-0.116c0.174-0.577,0.361-1.149,0.56-1.715c0.017-0.048,0.033-0.095,0.05-0.143  c0.198-0.556,0.409-1.106,0.632-1.65c0.023-0.057,0.046-0.113,0.069-0.169c0.221-0.533,0.453-1.061,0.697-1.582  c0.031-0.066,0.061-0.132,0.092-0.197c0.241-0.509,0.493-1.013,0.755-1.51c0.04-0.076,0.08-0.151,0.121-0.227  c0.26-0.485,0.529-0.964,0.809-1.438c0.05-0.084,0.1-0.168,0.15-0.252c0.277-0.461,0.562-0.916,0.857-1.365  c0.061-0.093,0.122-0.185,0.184-0.277c0.291-0.436,0.59-0.866,0.898-1.29c0.073-0.101,0.148-0.202,0.223-0.302  c0.304-0.41,0.614-0.815,0.933-1.213c0.087-0.109,0.176-0.217,0.265-0.325c0.314-0.384,0.634-0.763,0.962-1.136  c0.103-0.116,0.207-0.231,0.311-0.346c0.323-0.358,0.65-0.711,0.985-1.058c0.119-0.123,0.24-0.243,0.36-0.365  c0.329-0.332,0.662-0.66,1.003-0.981c0.136-0.128,0.274-0.253,0.412-0.379c0.335-0.307,0.673-0.611,1.018-0.907  c0.153-0.131,0.309-0.258,0.463-0.387c0.339-0.282,0.68-0.562,1.029-0.834c0.171-0.133,0.345-0.262,0.518-0.392  c0.342-0.258,0.685-0.514,1.035-0.762c0.189-0.134,0.382-0.263,0.574-0.393c0.344-0.235,0.688-0.468,1.039-0.693  c0.207-0.133,0.419-0.259,0.629-0.389c0.344-0.212,0.687-0.423,1.038-0.625c0.227-0.131,0.458-0.255,0.687-0.381  c0.343-0.189,0.686-0.379,1.035-0.559c0.245-0.127,0.495-0.245,0.743-0.367c0.342-0.168,0.682-0.337,1.029-0.496  c0.265-0.121,0.535-0.234,0.802-0.35c0.339-0.147,0.676-0.296,1.019-0.434c0.284-0.114,0.574-0.219,0.861-0.328  c0.335-0.126,0.668-0.256,1.007-0.374c0.304-0.106,0.613-0.201,0.921-0.3c0.33-0.107,0.658-0.217,0.991-0.316  c0.324-0.096,0.653-0.18,0.98-0.268c0.325-0.088,0.647-0.181,0.975-0.261c0.344-0.084,0.693-0.156,1.04-0.232  c0.317-0.069,0.632-0.145,0.952-0.207c0.366-0.071,0.738-0.129,1.107-0.191c0.308-0.052,0.613-0.11,0.923-0.156  c0.395-0.058,0.795-0.099,1.194-0.146c0.29-0.034,0.577-0.076,0.868-0.104c0.457-0.044,0.919-0.071,1.38-0.101  c0.238-0.015,0.474-0.04,0.713-0.051c0.703-0.034,1.41-0.052,2.122-0.052c0.672,0,1.339,0.019,2.003,0.049  c0.215,0.01,0.428,0.027,0.642,0.04c0.448,0.027,0.895,0.058,1.34,0.098c0.25,0.023,0.499,0.051,0.748,0.078  c0.409,0.045,0.815,0.094,1.22,0.149c0.254,0.035,0.508,0.072,0.761,0.111c0.404,0.063,0.805,0.133,1.205,0.208  c0.241,0.045,0.483,0.088,0.722,0.136c0.434,0.088,0.863,0.186,1.292,0.288c0.198,0.047,0.398,0.089,0.595,0.138  C60.793,36.22,61.4,36.385,62,36.565c0.147,0.044,0.29,0.095,0.437,0.14c0.458,0.142,0.913,0.288,1.364,0.445  c0.238,0.083,0.472,0.172,0.708,0.259c0.354,0.13,0.707,0.262,1.057,0.402c0.256,0.102,0.51,0.208,0.763,0.315  c0.324,0.136,0.645,0.276,0.964,0.42c0.259,0.117,0.517,0.235,0.773,0.357c0.309,0.147,0.614,0.3,0.918,0.454  c0.255,0.129,0.51,0.256,0.761,0.39c0.309,0.164,0.613,0.337,0.917,0.508c0.236,0.133,0.476,0.262,0.709,0.4  c0.497,0.293,0.987,0.596,1.469,0.909c0.265,0.171,0.522,0.352,0.782,0.529c0.243,0.165,0.487,0.328,0.727,0.498  c0.272,0.193,0.538,0.393,0.804,0.592c0.218,0.163,0.435,0.325,0.649,0.492c0.272,0.211,0.539,0.427,0.805,0.645  c0.197,0.161,0.391,0.324,0.585,0.489c0.272,0.231,0.542,0.464,0.808,0.702c0.17,0.152,0.336,0.308,0.503,0.463  c0.28,0.259,0.559,0.517,0.831,0.784c0.102,0.1,0.201,0.204,0.302,0.305c1.016,1.015,1.976,2.082,2.878,3.196  c0.089,0.11,0.181,0.219,0.269,0.33c0.264,0.334,0.52,0.673,0.774,1.015c0.098,0.132,0.196,0.263,0.292,0.396  c0.249,0.344,0.492,0.693,0.73,1.045c0.086,0.128,0.171,0.256,0.256,0.385c0.244,0.369,0.483,0.741,0.714,1.118  c0.053,0.087,0.104,0.176,0.157,0.263c1.081,1.794,2.021,3.675,2.808,5.63c0.029,0.071,0.059,0.141,0.087,0.212  c0.175,0.443,0.34,0.89,0.499,1.34c0.038,0.108,0.077,0.217,0.114,0.325c0.153,0.445,0.299,0.893,0.436,1.345  c0.031,0.102,0.06,0.205,0.091,0.308c0.139,0.472,0.272,0.946,0.394,1.425c0.002,0.006,0.004,0.013,0.005,0.019c0,0,0,0-0.001,0  c0.744,2.942,1.154,6.01,1.186,9.167c2.003-0.471,3.502-2.316,3.502-4.531C94.827,68.325,93.911,66.837,92.566,66.032z"/><line fill="none" stroke="#000000" stroke-linecap="round" stroke-miterlimit="10" x1="40.281" y1="27.379" x2="38.572" y2="29.088"/><line fill="none" stroke="#000000" stroke-linecap="round" stroke-miterlimit="10" x1="53.483" y1="27.379" x2="49.665" y2="31.196"/></svg>
