<svg xmlns="http://www.w3.org/2000/svg" xmlns:xlink="http://www.w3.org/1999/xlink" version="1.1" x="0px" y="0px" viewBox="0 0 100 100" enable-background="new 0 0 100 100" xml:space="preserve"><path fill-rule="evenodd" clip-rule="evenodd" fill="#000000" d="M32.153,34.591l5.015-2.762c5.399-2.735,11.353-4.103,17.861-4.103  c10.994,0,20.371,3.888,28.131,11.665c7.74,7.723,11.629,17.046,11.664,27.97c-2.217,3.54-5.559,5.167-10.029,4.881H5.175  C5.211,61.318,9.1,51.995,16.841,44.272C21.4,39.695,26.504,36.468,32.153,34.591z M53.365,30.595  c-1.125-0.411-2.342-0.617-3.647-0.617c-1.805,0-3.45,0.394-4.934,1.18c-0.429,0-0.84,0.009-1.234,0.027  c-1.019,0.035-2.038,0.107-3.057,0.214l-4.425,2.146c2.414-0.519,4.926-0.822,7.536-0.912c0.447-0.018,0.903-0.027,1.368-0.027  c10.995,0,20.381,3.888,28.159,11.666c7.078,7.08,10.932,15.5,11.557,25.261c0.018,0.161,0.037,0.322,0.055,0.482l1.742-1.046  c0.215-0.143,0.438-0.295,0.67-0.455v0.026l1.396-1.18c0.053-0.036,0.105-0.089,0.16-0.161c2.092-2.073,3.137-4.577,3.137-7.509  s-1.045-5.444-3.137-7.535c-0.787-0.787-1.617-1.413-2.494-1.877c-0.053-0.214-0.1-0.438-0.135-0.67  c-0.447-1.841-1.385-3.477-2.814-4.908c-1.162-1.162-2.449-2.002-3.863-2.521c-0.5-0.894-1.135-1.725-1.904-2.494  c-2.055-2.073-4.559-3.11-7.508-3.11c-0.68,0-1.342,0.062-1.984,0.188c-0.18-0.215-0.367-0.42-0.563-0.617  c-0.787-0.769-1.619-1.403-2.494-1.904c-0.447-0.232-0.904-0.429-1.369-0.59c-1.125-0.411-2.342-0.617-3.646-0.617  c-0.625,0-1.232,0.054-1.822,0.161c-0.395-0.143-0.779-0.269-1.154-0.375c-0.697-0.644-1.439-1.18-2.227-1.609  C54.287,30.979,53.83,30.774,53.365,30.595z"/></svg>
